Simulation
nRows=19
nColumns=15
endheader
time  TH_x TH_y TH_z SC_y  SC_z  SC_x  AC_y  AC_z  AC_x  GH_y  GH_z  GH_yy  EL_x  PS_y
1.549999999999999  0.000000  0.000000  0.000000  -35.63641451114601  7.622746827505705  24.508964028439806  59.81529103540994  6.96418692045984  -4.071671828879639  -12.91622582386161  51.35588336637672  23.929022110873824  17.933768574825848  0.000000
1.5809999999999989  0.000000  0.000000  0.000000  -36.10591238048819  7.94521444078929  24.854699782070234  59.997372053697646  7.236720065533499  -3.434306868699934  -13.397484250000172  51.847661581888445  24.086981564287033  17.92311743266652  0.000000
1.611999999999999  0.000000  0.000000  0.000000  -36.53431346922184  8.227670624643237  25.128626253178496  60.15629203832427  7.497363917142809  -2.8503763314916153  -13.804663478185176  52.27357203373241  24.217351556728875  17.919783037575275  0.000000
1.642999999999999  0.000000  0.000000  0.000000  -36.917449073881166  8.463617566412278  25.340188220340107  60.29594154615296  7.744466903672141  -2.3339207003782665  -14.136880310974595  52.632602165411456  24.319448603468977  17.923681116730844  0.000000
1.6739999999999988  0.000000  0.000000  0.000000  -37.25615673650675  8.652230735471056  25.4984061474475  60.417031282436525  7.972368724233355  -1.894813676504698  -14.391678396387448  52.91968829490242  24.395046412185042  17.9344900369431  0.000000
1.7049999999999987  0.000000  0.000000  0.000000  -37.55112088489427  8.795546734467141  25.608109871157914  60.51700116705684  8.173323329874343  -1.5416421448799542  -14.565113408102867  53.12607533876861  24.447728366480387  17.950825049786683  0.000000
1.7359999999999989  0.000000  0.000000  0.000000  -37.79824254196578  8.89552752342483  25.66902354881455  60.59084584441423  8.339190847891365  -1.2841698654847553  -14.653629537121995  53.240876935768185  24.48195184942013  17.970206485508438  0.000000
1.7669999999999988  0.000000  0.000000  0.000000  -37.98714218590411  8.953095170759848  25.676150375743685  60.63232301897173  8.461411356146233  -1.1323643957883824  -14.65675957911198  53.251404252982915  24.50216668697366  17.98994868502243  0.000000
1.7979999999999987  0.000000  0.000000  0.000000  -38.10338207887474  8.968144201772498  25.621410250928825  60.635963260112405  8.531457241086251  -1.0931545300632273  -14.579500840594294  53.143135808094925  24.51212582488556  18.008204674272484  0.000000
1.8289999999999988  0.000000  0.000000  0.000000  -38.132958746475616  8.93938791004789  25.497281039245006  60.59936206336389  8.54337106559826  -1.1677627785053852  -14.432975424976574  52.90203462014011  24.514281730525536  18.024311792725424  0.000000
1.8599999999999988  0.000000  0.000000  0.000000  -38.0666998573641  8.863829537043099  25.301833637674218  60.52472212824075  8.497212576938663  -1.3518074160861728  -14.232846261071767  52.519492845468456  24.50926524068362  18.03842477850545  0.000000
1.8909999999999987  0.000000  0.000000  0.000000  -37.90256924298516  8.736543995191333  25.042384153296293  60.41898908492795  8.400311383120982  -1.6384049840277644  -13.99605882404068  51.99653706044904  24.495625244847893  18.051016408032332  0.000000
1.9219999999999986  0.000000  0.000000  0.000000  -37.645196538633556  8.551678517098885  24.73456919534509  60.291795845181134  8.263697907092745  -2.021839393043741  -13.736612687910085  51.34326125213152  24.470032493074385  18.06296456155117  0.000000
1.9529999999999987  0.000000  0.000000  0.000000  -37.30447776651827  8.305254078340942  24.395829787290946  60.15149852388709  8.094477403712979  -2.4986080132704878  -13.46069719134285  50.573591034489866  24.428055797415308  18.07665997312358  0.000000
1.9839999999999987  0.000000  0.000000  0.000000  -36.894414009463496  7.999338428927253  24.03620868210431  60.00041291718184  7.889783887136442  -3.065086043729053  -13.16194177343972  49.700600859587674  24.36482472208854  18.096922890310168  0.000000
2.014999999999999  0.000000  0.000000  0.000000  -36.431974781205554  7.642975648588873  23.653425822854256  59.833078553945924  7.639081236813077  -3.714485397693713  -12.82112317355145  48.73689017659426  24.275338872640873  18.130424475881107  0.000000
2.0459999999999985  0.000000  0.000000  0.000000  -35.93512265865743  7.247278176248955  23.237460682473056  59.640933946947825  7.334562168053982  -4.435607221832622  -12.415195032960845  47.69763892036195  24.154966867454775  18.182916439526597  0.000000
2.0769999999999986  0.000000  0.000000  0.000000  -35.420030909463954  6.819994165343255  22.781594213355177  59.4202312631548  6.97930667682622  -5.21331493572006  -11.932604494632416  46.60026422399461  24.00036165983368  18.25615366286533  0.000000
2.1079999999999988  0.000000  0.000000  0.000000  -34.9010422763346  6.363651266720907  22.288962666630194  59.17603240222249  6.5858450531988035  -6.03037451730356  -11.380719406961873  45.46183790194542  23.81078549248667  18.347756230597593  0.000000
